font.ufo
<glyph name="dnlightrightheavybxd" format="1">
	<unicode hex="250D"/>
	<advance width="600"/>
	<outline>
		<contour>
			<point x="680" y="140" type="line"/>
			<point x="680" y="460" type="line"/>
			<point x="220" y="460" type="line"/>
			<point x="220" y="-400" type="line"/>
			<point x="380" y="-400" type="line"/>
			<point x="380" y="140" type="line"/>
		</contour>
	</outline>
</glyph>
<glyph name="mediumshade" format="1">
	<unicode hex="2592"/>
	<advance width="600"/>
	<outline>
		<contour>
			<point x="446" y="900" type="curve" smooth="yes"/>
			<point x="446" y="870"/>
			<point x="470" y="846"/>
			<point x="500" y="846" type="curve" smooth="yes"/>
			<point x="530" y="846"/>
			<point x="554" y="870"/>
			<point x="554" y="900" type="curve" smooth="yes"/>
			<point x="554" y="930"/>
			<point x="530" y="954"/>
			<point x="500" y="954" type="curve" smooth="yes"/>
			<point x="470" y="954"/>
			<point x="446" y="930"/>
		</contour>
		<contour>
			<point x="246" y="900" type="curve" smooth="yes"/>
			<point x="246" y="870"/>
			<point x="270" y="846"/>
			<point x="300" y="846" type="curve" smooth="yes"/>
			<point x="330" y="846"/>
			<point x="354" y="870"/>
			<point x="354" y="900" type="curve" smooth="yes"/>
			<point x="354" y="930"/>
			<point x="330" y="954"/>
			<point x="300" y="954" type="curve" smooth="yes"/>
			<point x="270" y="954"/>
			<point x="246" y="930"/>
		</contour>
		<contour>
			<point x="46" y="900" type="curve" smooth="yes"/>
			<point x="46" y="870"/>
			<point x="70" y="846"/>
			<point x="100" y="846" type="curve" smooth="yes"/>
			<point x="130" y="846"/>
			<point x="154" y="870"/>
			<point x="154" y="900" type="curve" smooth="yes"/>
			<point x="154" y="930"/>
			<point x="130" y="954"/>
			<point x="100" y="954" type="curve" smooth="yes"/>
			<point x="70" y="954"/>
			<point x="46" y="930"/>
		</contour>
		<contour>
			<point x="364" y="800" type="curve" smooth="yes"/>
			<point x="364" y="780"/>
			<point x="380" y="764"/>
			<point x="400" y="764" type="curve" smooth="yes"/>
			<point x="420" y="764"/>
			<point x="436" y="780"/>
			<point x="436" y="800" type="curve" smooth="yes"/>
			<point x="436" y="820"/>
			<point x="420" y="836"/>
			<point x="400" y="836" type="curve" smooth="yes"/>
			<point x="380" y="836"/>
			<point x="364" y="820"/>
		</contour>
		<contour>
			<point x="164" y="800" type="curve" smooth="yes"/>
			<point x="164" y="780"/>
			<point x="180" y="764"/>
			<point x="200" y="764" type="curve" smooth="yes"/>
			<point x="220" y="764"/>
			<point x="236" y="780"/>
			<point x="236" y="800" type="curve" smooth="yes"/>
			<point x="236" y="820"/>
			<point x="220" y="836"/>
			<point x="200" y="836" type="curve" smooth="yes"/>
			<point x="180" y="836"/>
			<point x="164" y="820"/>
		</contour>
		<contour>
			<point x="-36" y="800" type="curve" smooth="yes"/>
			<point x="-36" y="780"/>
			<point x="-20" y="764"/>
			<point x="0" y="764" type="curve" smooth="yes"/>
			<point x="20" y="764"/>
			<point x="36" y="780"/>
			<point x="36" y="800" type="curve" smooth="yes"/>
			<point x="36" y="820"/>
			<point x="20" y="836"/>
			<point x="0" y="836" type="curve" smooth="yes"/>
			<point x="-20" y="836"/>
			<point x="-36" y="820"/>
		</contour>
		<contour>
			<point x="446" y="700" type="curve" smooth="yes"/>
			<point x="446" y="670"/>
			<point x="470" y="646"/>
			<point x="500" y="646" type="curve" smooth="yes"/>
			<point x="530" y="646"/>
			<point x="554" y="670"/>
			<point x="554" y="700" type="curve" smooth="yes"/>
			<point x="554" y="730"/>
			<point x="530" y="754"/>
			<point x="500" y="754" type="curve" smooth="yes"/>
			<point x="470" y="754"/>
			<point x="446" y="730"/>
		</contour>
		<contour>
			<point x="246" y="700" type="curve" smooth="yes"/>
			<point x="246" y="670"/>
			<point x="270" y="646"/>
			<point x="300" y="646" type="curve" smooth="yes"/>
			<point x="330" y="646"/>
			<point x="354" y="670"/>
			<point x="354" y="700" type="curve" smooth="yes"/>
			<point x="354" y="730"/>
			<point x="330" y="754"/>
			<point x="300" y="754" type="curve" smooth="yes"/>
			<point x="270" y="754"/>
			<point x="246" y="730"/>
		</contour>
		<contour>
			<point x="46" y="700" type="curve" smooth="yes"/>
			<point x="46" y="670"/>
			<point x="70" y="646"/>
			<point x="100" y="646" type="curve" smooth="yes"/>
			<point x="130" y="646"/>
			<point x="154" y="670"/>
			<point x="154" y="700" type="curve" smooth="yes"/>
			<point x="154" y="730"/>
			<point x="130" y="754"/>
			<point x="100" y="754" type="curve" smooth="yes"/>
			<point x="70" y="754"/>
			<point x="46" y="730"/>
		</contour>
		<contour>
			<point x="364" y="600" type="curve" smooth="yes"/>
			<point x="364" y="580"/>
			<point x="380" y="564"/>
			<point x="400" y="564" type="curve" smooth="yes"/>
			<point x="420" y="564"/>
			<point x="436" y="580"/>
			<point x="436" y="600" type="curve" smooth="yes"/>
			<point x="436" y="620"/>
			<point x="420" y="636"/>
			<point x="400" y="636" type="curve" smooth="yes"/>
			<point x="380" y="636"/>
			<point x="364" y="620"/>
		</contour>
		<contour>
			<point x="164" y="600" type="curve" smooth="yes"/>
			<point x="164" y="580"/>
			<point x="180" y="564"/>
			<point x="200" y="564" type="curve" smooth="yes"/>
			<point x="220" y="564"/>
			<point x="236" y="580"/>
			<point x="236" y="600" type="curve" smooth="yes"/>
			<point x="236" y="620"/>
			<point x="220" y="636"/>
			<point x="200" y="636" type="curve" smooth="yes"/>
			<point x="180" y="636"/>
			<point x="164" y="620"/>
		</contour>
		<contour>
			<point x="-36" y="600" type="curve" smooth="yes"/>
			<point x="-36" y="580"/>
			<point x="-20" y="564"/>
			<point x="0" y="564" type="curve" smooth="yes"/>
			<point x="20" y="564"/>
			<point x="36" y="580"/>
			<point x="36" y="600" type="curve" smooth="yes"/>
			<point x="36" y="620"/>
			<point x="20" y="636"/>
			<point x="0" y="636" type="curve" smooth="yes"/>
			<point x="-20" y="636"/>
			<point x="-36" y="620"/>
		</contour>
		<contour>
			<point x="446" y="500" type="curve" smooth="yes"/>
			<point x="446" y="470"/>
			<point x="470" y="446"/>
			<point x="500" y="446" type="curve" smooth="yes"/>
			<point x="530" y="446"/>
			<point x="554" y="470"/>
			<point x="554" y="500" type="curve" smooth="yes"/>
			<point x="554" y="530"/>
			<point x="530" y="554"/>
			<point x="500" y="554" type="curve" smooth="yes"/>
			<point x="470" y="554"/>
			<point x="446" y="530"/>
		</contour>
		<contour>
			<point x="246" y="500" type="curve" smooth="yes"/>
			<point x="246" y="470"/>
			<point x="270" y="446"/>
			<point x="300" y="446" type="curve" smooth="yes"/>
			<point x="330" y="446"/>
			<point x="354" y="470"/>
			<point x="354" y="500" type="curve" smooth="yes"/>
			<point x="354" y="530"/>
			<point x="330" y="554"/>
			<point x="300" y="554" type="curve" smooth="yes"/>
			<point x="270" y="554"/>
			<point x="246" y="530"/>
		</contour>
		<contour>
			<point x="46" y="500" type="curve" smooth="yes"/>
			<point x="46" y="470"/>
			<point x="70" y="446"/>
			<point x="100" y="446" type="curve" smooth="yes"/>
			<point x="130" y="446"/>
			<point x="154" y="470"/>
			<point x="154" y="500" type="curve" smooth="yes"/>
			<point x="154" y="530"/>
			<point x="130" y="554"/>
			<point x="100" y="554" type="curve" smooth="yes"/>
			<point x="70" y="554"/>
			<point x="46" y="530"/>
		</contour>
		<contour>
			<point x="364" y="400" type="curve" smooth="yes"/>
			<point x="364" y="380"/>
			<point x="380" y="364"/>
			<point x="400" y="364" type="curve" smooth="yes"/>
			<point x="420" y="364"/>
			<point x="436" y="380"/>
			<point x="436" y="400" type="curve" smooth="yes"/>
			<point x="436" y="420"/>
			<point x="420" y="436"/>
			<point x="400" y="436" type="curve" smooth="yes"/>
			<point x="380" y="436"/>
			<point x="364" y="420"/>
		</contour>
		<contour>
			<point x="164" y="400" type="curve" smooth="yes"/>
			<point x="164" y="380"/>
			<point x="180" y="364"/>
			<point x="200" y="364" type="curve" smooth="yes"/>
			<point x="220" y="364"/>
			<point x="236" y="380"/>
			<point x="236" y="400" type="curve" smooth="yes"/>
			<point x="236" y="420"/>
			<point x="220" y="436"/>
			<point x="200" y="436" type="curve" smooth="yes"/>
			<point x="180" y="436"/>
			<point x="164" y="420"/>
		</contour>
		<contour>
			<point x="-36" y="400" type="curve" smooth="yes"/>
			<point x="-36" y="380"/>
			<point x="-20" y="364"/>
			<point x="0" y="364" type="curve" smooth="yes"/>
			<point x="20" y="364"/>
			<point x="36" y="380"/>
			<point x="36" y="400" type="curve" smooth="yes"/>
			<point x="36" y="420"/>
			<point x="20" y="436"/>
			<point x="0" y="436" type="curve" smooth="yes"/>
			<point x="-20" y="436"/>
			<point x="-36" y="420"/>
		</contour>
		<contour>
			<point x="446" y="300" type="curve" smooth="yes"/>
			<point x="446" y="270"/>
			<point x="470" y="246"/>
			<point x="500" y="246" type="curve" smooth="yes"/>
			<point x="530" y="246"/>
			<point x="554" y="270"/>
			<point x="554" y="300" type="curve" smooth="yes"/>
			<point x="554" y="330"/>
			<point x="530" y="354"/>
			<point x="500" y="354" type="curve" smooth="yes"/>
			<point x="470" y="354"/>
			<point x="446" y="330"/>
		</contour>
		<contour>
			<point x="246" y="300" type="curve" smooth="yes"/>
			<point x="246" y="270"/>
			<point x="270" y="246"/>
			<point x="300" y="246" type="curve" smooth="yes"/>
			<point x="330" y="246"/>
			<point x="354" y="270"/>
			<point x="354" y="300" type="curve" smooth="yes"/>
			<point x="354" y="330"/>
			<point x="330" y="354"/>
			<point x="300" y="354" type="curve" smooth="yes"/>
			<point x="270" y="354"/>
			<point x="246" y="330"/>
		</contour>
		<contour>
			<point x="46" y="300" type="curve" smooth="yes"/>
			<point x="46" y="270"/>
			<point x="70" y="246"/>
			<point x="100" y="246" type="curve" smooth="yes"/>
			<point x="130" y="246"/>
			<point x="154" y="270"/>
			<point x="154" y="300" type="curve" smooth="yes"/>
			<point x="154" y="330"/>
			<point x="130" y="354"/>
			<point x="100" y="354" type="curve" smooth="yes"/>
			<point x="70" y="354"/>
			<point x="46" y="330"/>
		</contour>
		<contour>
			<point x="364" y="200" type="curve" smooth="yes"/>
			<point x="364" y="180"/>
			<point x="380" y="164"/>
			<point x="400" y="164" type="curve" smooth="yes"/>
			<point x="420" y="164"/>
			<point x="436" y="180"/>
			<point x="436" y="200" type="curve" smooth="yes"/>
			<point x="436" y="220"/>
			<point x="420" y="236"/>
			<point x="400" y="236" type="curve" smooth="yes"/>
			<point x="380" y="236"/>
			<point x="364" y="220"/>
		</contour>
		<contour>
			<point x="164" y="200" type="curve" smooth="yes"/>
			<point x="164" y="180"/>
			<point x="180" y="164"/>
			<point x="200" y="164" type="curve" smooth="yes"/>
			<point x="220" y="164"/>
			<point x="236" y="180"/>
			<point x="236" y="200" type="curve" smooth="yes"/>
			<point x="236" y="220"/>
			<point x="220" y="236"/>
			<point x="200" y="236" type="curve" smooth="yes"/>
			<point x="180" y="236"/>
			<point x="164" y="220"/>
		</contour>
		<contour>
			<point x="-36" y="200" type="curve" smooth="yes"/>
			<point x="-36" y="180"/>
			<point x="-20" y="164"/>
			<point x="0" y="164" type="curve" smooth="yes"/>
			<point x="20" y="164"/>
			<point x="36" y="180"/>
			<point x="36" y="200" type="curve" smooth="yes"/>
			<point x="36" y="220"/>
			<point x="20" y="236"/>
			<point x="0" y="236" type="curve" smooth="yes"/>
			<point x="-20" y="236"/>
			<point x="-36" y="220"/>
		</contour>
		<contour>
			<point x="446" y="100" type="curve" smooth="yes"/>
			<point x="446" y="70"/>
			<point x="470" y="46"/>
			<point x="500" y="46" type="curve" smooth="yes"/>
			<point x="530" y="46"/>
			<point x="554" y="70"/>
			<point x="554" y="100" type="curve" smooth="yes"/>
			<point x="554" y="130"/>
			<point x="530" y="154"/>
			<point x="500" y="154" type="curve" smooth="yes"/>
			<point x="470" y="154"/>
			<point x="446" y="130"/>
		</contour>
		<contour>
			<point x="246" y="100" type="curve" smooth="yes"/>
			<point x="246" y="70"/>
			<point x="270" y="46"/>
			<point x="300" y="46" type="curve" smooth="yes"/>
			<point x="330" y="46"/>
			<point x="354" y="70"/>
			<point x="354" y="100" type="curve" smooth="yes"/>
			<point x="354" y="130"/>
			<point x="330" y="154"/>
			<point x="300" y="154" type="curve" smooth="yes"/>
			<point x="270" y="154"/>
			<point x="246" y="130"/>
		</contour>
		<contour>
			<point x="46" y="100" type="curve" smooth="yes"/>
			<point x="46" y="70"/>
			<point x="70" y="46"/>
			<point x="100" y="46" type="curve" smooth="yes"/>
			<point x="130" y="46"/>
			<point x="154" y="70"/>
			<point x="154" y="100" type="curve" smooth="yes"/>
			<point x="154" y="130"/>
			<point x="130" y="154"/>
			<point x="100" y="154" type="curve" smooth="yes"/>
			<point x="70" y="154"/>
			<point x="46" y="130"/>
		</contour>
		<contour>
			<point x="364" y="0" type="curve" smooth="yes"/>
			<point x="364" y="-20"/>
			<point x="380" y="-36"/>
			<point x="400" y="-36" type="curve" smooth="yes"/>
			<point x="420" y="-36"/>
			<point x="436" y="-20"/>
			<point x="436" y="0" type="curve" smooth="yes"/>
			<point x="436" y="20"/>
			<point x="420" y="36"/>
			<point x="400" y="36" type="curve" smooth="yes"/>
			<point x="380" y="36"/>
			<point x="364" y="20"/>
		</contour>
		<contour>
			<point x="164" y="0" type="curve" smooth="yes"/>
			<point x="164" y="-20"/>
			<point x="180" y="-36"/>
			<point x="200" y="-36" type="curve" smooth="yes"/>
			<point x="220" y="-36"/>
			<point x="236" y="-20"/>
			<point x="236" y="0" type="curve" smooth="yes"/>
			<point x="236" y="20"/>
			<point x="220" y="36"/>
			<point x="200" y="36" type="curve" smooth="yes"/>
			<point x="180" y="36"/>
			<point x="164" y="20"/>
		</contour>
		<contour>
			<point x="-36" y="0" type="curve" smooth="yes"/>
			<point x="-36" y="-20"/>
			<point x="-20" y="-36"/>
			<point x="0" y="-36" type="curve" smooth="yes"/>
			<point x="20" y="-36"/>
			<point x="36" y="-20"/>
			<point x="36" y="0" type="curve" smooth="yes"/>
			<point x="36" y="20"/>
			<point x="20" y="36"/>
			<point x="0" y="36" type="curve" smooth="yes"/>
			<point x="-20" y="36"/>
			<point x="-36" y="20"/>
		</contour>
		<contour>
			<point x="446" y="-100" type="curve" smooth="yes"/>
			<point x="446" y="-130"/>
			<point x="470" y="-154"/>
			<point x="500" y="-154" type="curve" smooth="yes"/>
			<point x="530" y="-154"/>
			<point x="554" y="-130"/>
			<point x="554" y="-100" type="curve" smooth="yes"/>
			<point x="554" y="-70"/>
			<point x="530" y="-46"/>
			<point x="500" y="-46" type="curve" smooth="yes"/>
			<point x="470" y="-46"/>
			<point x="446" y="-70"/>
		</contour>
		<contour>
			<point x="246" y="-100" type="curve" smooth="yes"/>
			<point x="246" y="-130"/>
			<point x="270" y="-154"/>
			<point x="300" y="-154" type="curve" smooth="yes"/>
			<point x="330" y="-154"/>
			<point x="354" y="-130"/>
			<point x="354" y="-100" type="curve" smooth="yes"/>
			<point x="354" y="-70"/>
			<point x="330" y="-46"/>
			<point x="300" y="-46" type="curve" smooth="yes"/>
			<point x="270" y="-46"/>
			<point x="246" y="-70"/>
		</contour>
		<contour>
			<point x="46" y="-100" type="curve" smooth="yes"/>
			<point x="46" y="-130"/>
			<point x="70" y="-154"/>
			<point x="100" y="-154" type="curve" smooth="yes"/>
			<point x="130" y="-154"/>
			<point x="154" y="-130"/>
			<point x="154" y="-100" type="curve" smooth="yes"/>
			<point x="154" y="-70"/>
			<point x="130" y="-46"/>
			<point x="100" y="-46" type="curve" smooth="yes"/>
			<point x="70" y="-46"/>
			<point x="46" y="-70"/>
		</contour>
		<contour>
			<point x="364" y="-200" type="curve" smooth="yes"/>
			<point x="364" y="-220"/>
			<point x="380" y="-236"/>
			<point x="400" y="-236" type="curve" smooth="yes"/>
			<point x="420" y="-236"/>
			<point x="436" y="-220"/>
			<point x="436" y="-200" type="curve" smooth="yes"/>
			<point x="436" y="-180"/>
			<point x="420" y="-164"/>
			<point x="400" y="-164" type="curve" smooth="yes"/>
			<point x="380" y="-164"/>
			<point x="364" y="-180"/>
		</contour>
		<contour>
			<point x="164" y="-200" type="curve" smooth="yes"/>
			<point x="164" y="-220"/>
			<point x="180" y="-236"/>
			<point x="200" y="-236" type="curve" smooth="yes"/>
			<point x="220" y="-236"/>
			<point x="236" y="-220"/>
			<point x="236" y="-200" type="curve" smooth="yes"/>
			<point x="236" y="-180"/>
			<point x="220" y="-164"/>
			<point x="200" y="-164" type="curve" smooth="yes"/>
			<point x="180" y="-164"/>
			<point x="164" y="-180"/>
		</contour>
		<contour>
			<point x="-36" y="-200" type="curve" smooth="yes"/>
			<point x="-36" y="-220"/>
			<point x="-20" y="-236"/>
			<point x="0" y="-236" type="curve" smooth="yes"/>
			<point x="20" y="-236"/>
			<point x="36" y="-220"/>
			<point x="36" y="-200" type="curve" smooth="yes"/>
			<point x="36" y="-180"/>
			<point x="20" y="-164"/>
			<point x="0" y="-164" type="curve" smooth="yes"/>
			<point x="-20" y="-164"/>
			<point x="-36" y="-180"/>
		</contour>
		<contour>
			<point x="446" y="-300" type="curve" smooth="yes"/>
			<point x="446" y="-330"/>
			<point x="470" y="-354"/>
			<point x="500" y="-354" type="curve" smooth="yes"/>
			<point x="530" y="-354"/>
			<point x="554" y="-330"/>
			<point x="554" y="-300" type="curve" smooth="yes"/>
			<point x="554" y="-270"/>
			<point x="530" y="-246"/>
			<point x="500" y="-246" type="curve" smooth="yes"/>
			<point x="470" y="-246"/>
			<point x="446" y="-270"/>
		</contour>
		<contour>
			<point x="246" y="-300" type="curve" smooth="yes"/>
			<point x="246" y="-330"/>
			<point x="270" y="-354"/>
			<point x="300" y="-354" type="curve" smooth="yes"/>
			<point x="330" y="-354"/>
			<point x="354" y="-330"/>
			<point x="354" y="-300" type="curve" smooth="yes"/>
			<point x="354" y="-270"/>
			<point x="330" y="-246"/>
			<point x="300" y="-246" type="curve" smooth="yes"/>
			<point x="270" y="-246"/>
			<point x="246" y="-270"/>
		</contour>
		<contour>
			<point x="46" y="-300" type="curve" smooth="yes"/>
			<point x="46" y="-330"/>
			<point x="70" y="-354"/>
			<point x="100" y="-354" type="curve" smooth="yes"/>
			<point x="130" y="-354"/>
			<point x="154" y="-330"/>
			<point x="154" y="-300" type="curve" smooth="yes"/>
			<point x="154" y="-270"/>
			<point x="130" y="-246"/>
			<point x="100" y="-246" type="curve" smooth="yes"/>
			<point x="70" y="-246"/>
			<point x="46" y="-270"/>
		</contour>
		<contour>
			<point x="364" y="-400" type="curve" smooth="yes"/>
			<point x="364" y="-420"/>
			<point x="380" y="-436"/>
			<point x="400" y="-436" type="curve" smooth="yes"/>
			<point x="420" y="-436"/>
			<point x="436" y="-420"/>
			<point x="436" y="-400" type="curve" smooth="yes"/>
			<point x="436" y="-380"/>
			<point x="420" y="-364"/>
			<point x="400" y="-364" type="curve" smooth="yes"/>
			<point x="380" y="-364"/>
			<point x="364" y="-380"/>
		</contour>
		<contour>
			<point x="164" y="-400" type="curve" smooth="yes"/>
			<point x="164" y="-420"/>
			<point x="180" y="-436"/>
			<point x="200" y="-436" type="curve" smooth="yes"/>
			<point x="220" y="-436"/>
			<point x="236" y="-420"/>
			<point x="236" y="-400" type="curve" smooth="yes"/>
			<point x="236" y="-380"/>
			<point x="220" y="-364"/>
			<point x="200" y="-364" type="curve" smooth="yes"/>
			<point x="180" y="-364"/>
			<point x="164" y="-380"/>
		</contour>
		<contour>
			<point x="-36" y="-400" type="curve" smooth="yes"/>
			<point x="-36" y="-420"/>
			<point x="-20" y="-436"/>
			<point x="0" y="-436" type="curve" smooth="yes"/>
			<point x="20" y="-436"/>
			<point x="36" y="-420"/>
			<point x="36" y="-400" type="curve" smooth="yes"/>
			<point x="36" y="-380"/>
			<point x="20" y="-364"/>
			<point x="0" y="-364" type="curve" smooth="yes"/>
			<point x="-20" y="-364"/>
			<point x="-36" y="-380"/>
		</contour>
	</outline>
</glyph>
<glyph name="Ie" format="1">
	<advance width="600"/>
	<outline>
		<component base="E"/>
		<contour>
			<point name="aboveUC" x="320" y="670" type="move"/>
		</contour>
	</outline>
</glyph>
<glyph name="Ka" format="1">
	<advance width="600"/>
	<outline>
		<contour>
			<point x="56" y="0" type="line"/>
			<point x="228" y="0" type="line"/>
			<point x="228" y="260" type="line"/>
			<point x="270" y="260" type="line"/>
			<point x="416" y="0" type="line"/>
			<point x="600" y="0" type="line"/>
			<point x="370" y="404" type="line"/>
			<point x="228" y="404" type="line"/>
			<point x="228" y="650" type="line"/>
			<point x="56" y="650" type="line"/>
		</contour>
		<contour>
			<point x="400" y="340" type="line"/>
			<point x="454" y="452" type="line" smooth="yes"/>
			<point x="472" y="490"/>
			<point x="492" y="502"/>
			<point x="522" y="502" type="curve" smooth="yes"/>
			<point x="528" y="502"/>
			<point x="540" y="502"/>
			<point x="552" y="498" type="curve"/>
			<point x="580" y="652" type="line"/>
			<point x="564" y="660"/>
			<point x="540" y="662"/>
			<point x="520" y="662" type="curve" smooth="yes"/>
			<point x="440" y="662"/>
			<point x="381" y="633"/>
			<point x="338" y="546" type="curve" smooth="yes"/>
			<point x="252" y="374" type="line"/>
		</contour>
		<contour>
			<point name="aboveUC" x="330" y="670" type="move"/>
		</contour>
	</outline>
</glyph>
<glyph name="acutecmb" format="1">
	<advance width="600"/>
	<outline>
		<contour>
			<point x="300" y="558" type="line"/>
			<point x="490" y="716" type="line"/>
			<point x="374" y="830" type="line"/>
			<point x="216" y="642" type="line"/>
		</contour>
		<contour>
			<point name="_aboveLC" x="300" y="520" type="move"/>
		</contour>
		<contour>
			<point name="aboveLC" x="300" y="820" type="move"/>
		</contour>
	</outline>
</glyph>
<glyph name="arrowdblright" format="1">
	<advance width="600"/>
	<outline>
		<contour>
			<point x="308" y="-18" type="line"/>
			<point x="588" y="250" type="line"/>
			<point x="588" y="254" type="line"/>
			<point x="308" y="522" type="line"/>
			<point x="228" y="430" type="line"/>
			<point x="436" y="254" type="line"/>
			<point x="436" y="250" type="line"/>
			<point x="228" y="74" type="line"/>
		</contour>
		<contour>
			<point x="32" y="128" type="line"/>
			<point x="438" y="128" type="line"/>
			<point x="438" y="226" type="line"/>
			<point x="32" y="226" type="line"/>
		</contour>
		<contour>
			<point x="32" y="278" type="line"/>
			<point x="438" y="278" type="line"/>
			<point x="438" y="376" type="line"/>
			<point x="32" y="376" type="line"/>
		</contour>
	</outline>
</glyph>
<glyph name="bulletsquare" format="1">
	<advance width="600"/>
	<outline>
		<contour>
			<point x="142" y="108" type="line"/>
			<point x="458" y="108" type="line"/>
			<point x="458" y="416" type="line"/>
			<point x="142" y="416" type="line"/>
		</contour>
	</outline>
</glyph>
<glyph name="bulletwhite" format="1">
	<advance width="600"/>
	<outline>
		<contour>
			<point x="300" y="76" type="curve" smooth="yes"/>
			<point x="410" y="76"/>
			<point x="490" y="157"/>
			<point x="490" y="262" type="curve" smooth="yes"/>
			<point x="490" y="367"/>
			<point x="410" y="448"/>
			<point x="300" y="448" type="curve" smooth="yes"/>
			<point x="190" y="448"/>
			<point x="110" y="367"/>
			<point x="110" y="262" type="curve" smooth="yes"/>
			<point x="110" y="157"/>
			<point x="190" y="76"/>
		</contour>
		<contour>
			<point x="300" y="160" type="curve" smooth="yes"/>
			<point x="244" y="160"/>
			<point x="204" y="203"/>
			<point x="204" y="262" type="curve" smooth="yes"/>
			<point x="204" y="321"/>
			<point x="244" y="364"/>
			<point x="300" y="364" type="curve" smooth="yes"/>
			<point x="356" y="364"/>
			<point x="396" y="321"/>
			<point x="396" y="262" type="curve" smooth="yes"/>
			<point x="396" y="203"/>
			<point x="356" y="160"/>
		</contour>
	</outline>
</glyph>
<glyph name="checkbox" format="1">
	<advance width="600"/>
	<outline>
		<contour>
			<point x="-30" y="-10" type="line"/>
			<point x="560" y="-10" type="line"/>
			<point x="630" y="70" type="line"/>
			<point x="630" y="676" type="line"/>
			<point x="50" y="676" type="line"/>
			<point x="-30" y="606" type="line"/>
		</contour>
		<contour>
			<point x="34" y="54" type="line"/>
			<point x="34" y="582" type="line"/>
			<point x="536" y="582" type="line"/>
			<point x="536" y="54" type="line"/>
		</contour>
	</outline>
</glyph>
<glyph name="egrave.sups" format="1">
	<advance width="600"/>
	<outline>
		<contour>
			<point x="308" y="738" type="line"/>
			<point x="368" y="796" type="line"/>
			<point x="258" y="926" type="line"/>
			<point x="178" y="848" type="line"/>
		</contour>
		<component base="e.sups"/>
	</outline>
</glyph>
<glyph name="en" format="1">
	<advance width="600"/>
	<outline>
		<contour>
			<point x="64" y="0" type="line"/>
			<point x="236" y="0" type="line"/>
			<point x="236" y="178" type="line"/>
			<point x="364" y="178" type="line"/>
			<point x="364" y="0" type="line"/>
			<point x="536" y="0" type="line"/>
			<point x="536" y="500" type="line"/>
			<point x="364" y="500" type="line"/>
			<point x="364" y="328" type="line"/>
			<point x="236" y="328" type="line"/>
			<point x="236" y="500" type="line"/>
			<point x="64" y="500" type="line"/>
		</contour>
		<contour>
			<point name="aboveLC" x="300" y="520" type="move"/>
		</contour>
	</outline>
</glyph>
<glyph name="ghe" format="1">
	<advance width="600"/>
	<outline>
		<contour>
			<point x="104" y="0" type="line"/>
			<point x="276" y="0" type="line"/>
			<point x="276" y="366" type="line"/>
			<point x="528" y="366" type="line"/>
			<point x="528" y="500" type="line"/>
			<point x="104" y="500" type="line"/>
		</contour>
		<contour>
			<point name="aboveLC" x="330" y="520" type="move"/>
		</contour>
	</outline>
</glyph>
<glyph name="glottalstopreversed" format="1">
	<advance width="600"/>
	<outline>
		<contour>
			<point x="232" y="0" type="line"/>
			<point x="404" y="0" type="line"/>
			<point x="404" y="314" type="line"/>
			<point x="271" y="396"/>
			<point x="234" y="429"/>
			<point x="234" y="486" type="curve" smooth="yes"/>
			<point x="234" y="542"/>
			<point x="278" y="570"/>
			<point x="344" y="570" type="curve" smooth="yes"/>
			<point x="392" y="570"/>
			<point x="439" y="541"/>
			<point x="470" y="504" type="curve"/>
			<point x="554" y="612" type="line"/>
			<point x="504" y="666"/>
			<point x="427" y="708"/>
			<point x="324" y="708" type="curve" smooth="yes"/>
			<point x="184" y="708"/>
			<point x="62" y="638"/>
			<point x="62" y="494" type="curve" smooth="yes"/>
			<point x="62" y="388"/>
			<point x="128" y="330"/>
			<point x="232" y="252" type="curve"/>
		</contour>
		<contour>
			<point name="aboveUC" x="300" y="730" type="move"/>
		</contour>
		<contour>
			<point name="belowLC" x="320" y="-20" type="move"/>
		</contour>
	</outline>
</glyph>
<glyph name="ijacute" format="1">
	<advance width="600"/>
	<outline>
		<contour>
			<point x="64" y="0" type="line"/>
			<point x="236" y="0" type="line"/>
			<point x="236" y="500" type="line"/>
			<point x="64" y="500" type="line"/>
		</contour>
		<contour>
			<point x="352" y="-188" type="curve" smooth="yes"/>
			<point x="502" y="-188"/>
			<point x="546" y="-86"/>
			<point x="546" y="26" type="curve" smooth="yes"/>
			<point x="546" y="500" type="line"/>
			<point x="374" y="500" type="line"/>
			<point x="374" y="20" type="line" smooth="yes"/>
			<point x="374" y="-34"/>
			<point x="360" y="-54"/>
			<point x="324" y="-54" type="curve" smooth="yes"/>
			<point x="312" y="-54"/>
			<point x="302" y="-52"/>
			<point x="288" y="-48" type="curve"/>
			<point x="258" y="-174" type="line"/>
			<point x="280" y="-182"/>
			<point x="306" y="-188"/>
		</contour>
		<component base="acutecmb" xOffset="-156"/>
		<component base="acutecmb" xOffset="154"/>
	</outline>
</glyph>
<glyph name="nhookleft" format="1">
	<advance width="600"/>
	<outline>
		<contour>
			<point x="64" y="-188" type="curve" smooth="yes"/>
			<point x="206" y="-188"/>
			<point x="248" y="-91"/>
			<point x="248" y="16" type="curve" smooth="yes"/>
			<point x="248" y="328" type="line"/>
			<point x="274" y="352"/>
			<point x="292" y="366"/>
			<point x="324" y="366" type="curve" smooth="yes"/>
			<point x="358" y="366"/>
			<point x="374" y="350"/>
			<point x="374" y="286" type="curve" smooth="yes"/>
			<point x="374" y="0" type="line"/>
			<point x="546" y="0" type="line"/>
			<point x="546" y="308" type="line" smooth="yes"/>
			<point x="546" y="432"/>
			<point x="500" y="512"/>
			<point x="390" y="512" type="curve" smooth="yes"/>
			<point x="322" y="512"/>
			<point x="272" y="478"/>
			<point x="232" y="440" type="curve"/>
			<point x="228" y="440" type="line"/>
			<point x="216" y="500" type="line"/>
			<point x="76" y="500" type="line"/>
			<point x="76" y="10" type="line" smooth="yes"/>
			<point x="76" y="-37"/>
			<point x="65" y="-54"/>
			<point x="36" y="-54" type="curve" smooth="yes"/>
			<point x="27" y="-54"/>
			<point x="20" y="-52"/>
			<point x="10" y="-48" type="curve"/>
			<point x="-20" y="-174" type="line"/>
			<point x="0" y="-182"/>
			<point x="23" y="-188"/>
		</contour>
		<contour>
			<point name="aboveLC" x="340" y="520" type="move"/>
		</contour>
		<contour>
			<point name="belowLC" x="300" y="-200" type="move"/>
		</contour>
	</outline>
</glyph>
<glyph name="ogonekcmb" format="1">
	<advance width="600"/>
	<outline>
		<contour>
			<point x="308" y="-228" type="curve" smooth="yes"/>
			<point x="352" y="-228"/>
			<point x="404" y="-214"/>
			<point x="432" y="-192" type="curve"/>
			<point x="398" y="-116" type="line"/>
			<point x="390" y="-122"/>
			<point x="372" y="-128"/>
			<point x="350" y="-128" type="curve" smooth="yes"/>
			<point x="330" y="-128"/>
			<point x="304" y="-116"/>
			<point x="304" y="-86" type="curve" smooth="yes"/>
			<point x="304" y="-55"/>
			<point x="323" y="-27"/>
			<point x="358" y="2" type="curve"/>
			<point x="266" y="2" type="line"/>
			<point x="241" y="-14"/>
			<point x="190" y="-62"/>
			<point x="190" y="-126" type="curve" smooth="yes"/>
			<point x="190" y="-193"/>
			<point x="242" y="-228"/>
		</contour>
		<contour>
			<point name="_ogonekLC" x="300" y="0" type="move"/>
		</contour>
	</outline>
</glyph>
<glyph name="ramshorn" format="1">
	<advance width="600"/>
	<outline>
		<contour>
			<point x="300" y="-12" type="curve" smooth="yes"/>
			<point x="422" y="-12"/>
			<point x="506" y="52"/>
			<point x="506" y="175" type="curve" smooth="yes"/>
			<point x="506" y="228"/>
			<point x="472" y="290"/>
			<point x="416" y="342" type="curve"/>
			<point x="436" y="366"/>
			<point x="461" y="374"/>
			<point x="486" y="374" type="curve" smooth="yes"/>
			<point x="503" y="374"/>
			<point x="521" y="368"/>
			<point x="532" y="360" type="curve"/>
			<point x="580" y="484" type="line"/>
			<point x="556" y="502"/>
			<point x="505" y="512"/>
			<point x="462" y="512" type="curve" smooth="yes"/>
			<point x="408" y="512"/>
			<point x="348" y="492"/>
			<point x="300" y="436" type="curve"/>
			<point x="252" y="492"/>
			<point x="192" y="512"/>
			<point x="138" y="512" type="curve" smooth="yes"/>
			<point x="95" y="512"/>
			<point x="44" y="502"/>
			<point x="20" y="484" type="curve"/>
			<point x="68" y="360" type="line"/>
			<point x="78" y="368"/>
			<point x="96" y="374"/>
			<point x="114" y="374" type="curve" smooth="yes"/>
			<point x="138" y="374"/>
			<point x="164" y="366"/>
			<point x="184" y="342" type="curve"/>
			<point x="128" y="290"/>
			<point x="94" y="228"/>
			<point x="94" y="175" type="curve" smooth="yes"/>
			<point x="94" y="52"/>
			<point x="178" y="-12"/>
		</contour>
		<contour>
			<point x="300" y="126" type="curve" smooth="yes"/>
			<point x="271" y="126"/>
			<point x="254" y="146"/>
			<point x="254" y="180" type="curve" smooth="yes"/>
			<point x="254" y="206"/>
			<point x="271" y="239"/>
			<point x="300" y="266" type="curve"/>
			<point x="329" y="239"/>
			<point x="346" y="206"/>
			<point x="346" y="180" type="curve" smooth="yes"/>
			<point x="346" y="146"/>
			<point x="329" y="126"/>
		</contour>
		<contour>
			<point name="aboveLC" x="300" y="520" type="move"/>
		</contour>
		<contour>
			<point name="belowLC" x="300" y="-20" type="move"/>
		</contour>
	</outline>
</glyph>
<glyph name="sha" format="1">
	<advance width="600"/>
	<outline>
		<contour>
			<point x="26" y="0" type="line"/>
			<point x="574" y="0" type="line"/>
			<point x="574" y="500" type="line"/>
			<point x="422" y="500" type="line"/>
			<point x="422" y="134" type="line"/>
			<point x="368" y="134" type="line"/>
			<point x="368" y="500" type="line"/>
			<point x="232" y="500" type="line"/>
			<point x="232" y="134" type="line"/>
			<point x="178" y="134" type="line"/>
			<point x="178" y="500" type="line"/>
			<point x="26" y="500" type="line"/>
		</contour>
		<contour>
			<point name="aboveLC" x="300" y="520" type="move"/>
		</contour>
	</outline>
</glyph>
<glyph name="tildeoverlaycmb" format="1">
	<advance width="600"/>
	<outline>
		<contour>
			<point x="424" y="164" type="curve" smooth="yes"/>
			<point x="492" y="164"/>
			<point x="536" y="204"/>
			<point x="540" y="302" type="curve"/>
			<point x="434" y="324" type="line"/>
			<point x="430" y="292"/>
			<point x="420" y="282"/>
			<point x="404" y="282" type="curve" smooth="yes"/>
			<point x="346" y="282"/>
			<point x="283" y="338"/>
			<point x="176" y="338" type="curve" smooth="yes"/>
			<point x="108" y="338"/>
			<point x="64" y="298"/>
			<point x="60" y="200" type="curve"/>
			<point x="166" y="178" type="line"/>
			<point x="170" y="210"/>
			<point x="180" y="220"/>
			<point x="196" y="220" type="curve" smooth="yes"/>
			<point x="254" y="220"/>
			<point x="319" y="164"/>
		</contour>
		<contour>
			<point name="_center" x="300" y="250" type="move"/>
		</contour>
	</outline>
</glyph>
<glyph name="trianglesmallleftblack" format="1">
	<advance width="600"/>
	<outline>
		<contour>
			<point x="454" y="78" type="line"/>
			<point x="458" y="78" type="line"/>
			<point x="458" y="446" type="line"/>
			<point x="454" y="446" type="line"/>
			<point x="118" y="264" type="line"/>
			<point x="118" y="260" type="line"/>
		</contour>
	</outline>
</glyph>
